<mxfile host="app.diagrams.net" modified="2022-12-20T15:30:26.574Z" agent="5.0 (Windows NT 10.0; Win64; x64) AppleWebKit/537.36 (KHTML, like Gecko) Chrome/101.0.0.0 Safari/537.36" etag="4ho7-Ni1uTQjLdMhVfPF" version="20.7.2" type="github">
  <diagram id="cEIReczgMlnvqsBptSSo" name="第 1 页">
    <mxGraphModel dx="2181" dy="635" grid="1" gridSize="10" guides="1" tooltips="1" connect="1" arrows="1" fold="1" page="1" pageScale="1" pageWidth="827" pageHeight="1169" math="0" shadow="0">
      <root>
        <mxCell id="0" />
        <mxCell id="1" parent="0" />
        <mxCell id="YKdpuSdvsNxuyerLBY6K-1" value="" style="edgeStyle=orthogonalEdgeStyle;rounded=0;orthogonalLoop=1;jettySize=auto;html=1;" parent="1" source="YKdpuSdvsNxuyerLBY6K-4" target="YKdpuSdvsNxuyerLBY6K-13" edge="1">
          <mxGeometry relative="1" as="geometry" />
        </mxCell>
        <mxCell id="YKdpuSdvsNxuyerLBY6K-2" value="失败" style="edgeLabel;html=1;align=center;verticalAlign=middle;resizable=0;points=[];" parent="YKdpuSdvsNxuyerLBY6K-1" vertex="1" connectable="0">
          <mxGeometry x="0.1873" relative="1" as="geometry">
            <mxPoint as="offset" />
          </mxGeometry>
        </mxCell>
        <mxCell id="YKdpuSdvsNxuyerLBY6K-3" value="成功" style="edgeStyle=orthogonalEdgeStyle;rounded=0;orthogonalLoop=1;jettySize=auto;html=1;" parent="1" source="YKdpuSdvsNxuyerLBY6K-4" target="YKdpuSdvsNxuyerLBY6K-15" edge="1">
          <mxGeometry relative="1" as="geometry" />
        </mxCell>
        <mxCell id="YKdpuSdvsNxuyerLBY6K-4" value="" style="verticalLabelPosition=bottom;verticalAlign=top;html=1;shape=card;whiteSpace=wrap;size=20;arcSize=12;" parent="1" vertex="1">
          <mxGeometry x="55" y="140" width="330" height="280" as="geometry" />
        </mxCell>
        <mxCell id="YKdpuSdvsNxuyerLBY6K-5" value="" style="edgeStyle=orthogonalEdgeStyle;rounded=0;orthogonalLoop=1;jettySize=auto;html=1;" parent="1" source="YKdpuSdvsNxuyerLBY6K-6" target="YKdpuSdvsNxuyerLBY6K-8" edge="1">
          <mxGeometry relative="1" as="geometry" />
        </mxCell>
        <mxCell id="YKdpuSdvsNxuyerLBY6K-6" value="开始" style="strokeWidth=2;html=1;shape=mxgraph.flowchart.start_1;whiteSpace=wrap;" parent="1" vertex="1">
          <mxGeometry x="170" y="50" width="100" height="60" as="geometry" />
        </mxCell>
        <mxCell id="YKdpuSdvsNxuyerLBY6K-7" value="" style="edgeStyle=orthogonalEdgeStyle;rounded=0;orthogonalLoop=1;jettySize=auto;html=1;" parent="1" source="YKdpuSdvsNxuyerLBY6K-8" target="YKdpuSdvsNxuyerLBY6K-10" edge="1">
          <mxGeometry relative="1" as="geometry" />
        </mxCell>
        <mxCell id="YKdpuSdvsNxuyerLBY6K-8" value="一次性批量加载所有主&lt;br&gt;数据应用信息" style="shape=parallelogram;html=1;strokeWidth=2;perimeter=parallelogramPerimeter;whiteSpace=wrap;rounded=1;arcSize=12;size=0.23;" parent="1" vertex="1">
          <mxGeometry x="130" y="160" width="180" height="60" as="geometry" />
        </mxCell>
        <mxCell id="YKdpuSdvsNxuyerLBY6K-9" value="" style="edgeStyle=orthogonalEdgeStyle;rounded=0;orthogonalLoop=1;jettySize=auto;html=1;" parent="1" source="YKdpuSdvsNxuyerLBY6K-10" target="YKdpuSdvsNxuyerLBY6K-11" edge="1">
          <mxGeometry relative="1" as="geometry" />
        </mxCell>
        <mxCell id="YKdpuSdvsNxuyerLBY6K-10" value="一次性批量加载有关的&lt;br&gt;主数据项信息" style="shape=parallelogram;html=1;strokeWidth=2;perimeter=parallelogramPerimeter;whiteSpace=wrap;rounded=1;arcSize=12;size=0.23;" parent="1" vertex="1">
          <mxGeometry x="120" y="255" width="200" height="50" as="geometry" />
        </mxCell>
        <mxCell id="YKdpuSdvsNxuyerLBY6K-11" value="一次性加载有关&lt;br&gt;的元数据项信息" style="shape=parallelogram;html=1;strokeWidth=2;perimeter=parallelogramPerimeter;whiteSpace=wrap;rounded=1;arcSize=12;size=0.23;" parent="1" vertex="1">
          <mxGeometry x="115" y="340" width="210" height="50" as="geometry" />
        </mxCell>
        <mxCell id="YKdpuSdvsNxuyerLBY6K-12" value="数据准备" style="text;html=1;resizable=0;autosize=1;align=center;verticalAlign=middle;points=[];fillColor=none;strokeColor=none;rounded=0;" parent="1" vertex="1">
          <mxGeometry x="60" y="150" width="70" height="30" as="geometry" />
        </mxCell>
        <mxCell id="YKdpuSdvsNxuyerLBY6K-13" value="结束" style="strokeWidth=2;html=1;shape=mxgraph.flowchart.terminator;whiteSpace=wrap;" parent="1" vertex="1">
          <mxGeometry x="765" y="250" width="100" height="60" as="geometry" />
        </mxCell>
        <mxCell id="YKdpuSdvsNxuyerLBY6K-14" value="" style="edgeStyle=orthogonalEdgeStyle;rounded=0;orthogonalLoop=1;jettySize=auto;html=1;" parent="1" source="YKdpuSdvsNxuyerLBY6K-15" target="YKdpuSdvsNxuyerLBY6K-17" edge="1">
          <mxGeometry relative="1" as="geometry" />
        </mxCell>
        <mxCell id="YKdpuSdvsNxuyerLBY6K-15" value="foreach(主数据应用信息）" style="strokeWidth=2;html=1;shape=mxgraph.flowchart.loop_limit;whiteSpace=wrap;" parent="1" vertex="1">
          <mxGeometry x="140" y="460" width="160" height="40" as="geometry" />
        </mxCell>
        <mxCell id="YKdpuSdvsNxuyerLBY6K-16" value="" style="edgeStyle=orthogonalEdgeStyle;rounded=0;orthogonalLoop=1;jettySize=auto;html=1;" parent="1" source="YKdpuSdvsNxuyerLBY6K-17" target="YKdpuSdvsNxuyerLBY6K-39" edge="1">
          <mxGeometry relative="1" as="geometry" />
        </mxCell>
        <mxCell id="YKdpuSdvsNxuyerLBY6K-17" value="组装参数" style="rounded=1;whiteSpace=wrap;html=1;absoluteArcSize=1;arcSize=14;strokeWidth=2;" parent="1" vertex="1">
          <mxGeometry x="155" y="540" width="130" height="40" as="geometry" />
        </mxCell>
        <mxCell id="YKdpuSdvsNxuyerLBY6K-18" value="" style="edgeStyle=orthogonalEdgeStyle;rounded=0;orthogonalLoop=1;jettySize=auto;html=1;" parent="1" source="YKdpuSdvsNxuyerLBY6K-19" target="YKdpuSdvsNxuyerLBY6K-31" edge="1">
          <mxGeometry relative="1" as="geometry" />
        </mxCell>
        <mxCell id="YKdpuSdvsNxuyerLBY6K-19" value="" style="rounded=1;whiteSpace=wrap;html=1;absoluteArcSize=1;arcSize=14;strokeWidth=2;fontFamily=Helvetica;fontSize=12;fontColor=default;align=center;strokeColor=default;fillColor=default;" parent="1" vertex="1">
          <mxGeometry x="510" y="740.5" width="610" height="349.5" as="geometry" />
        </mxCell>
        <mxCell id="YKdpuSdvsNxuyerLBY6K-20" value="" style="edgeStyle=orthogonalEdgeStyle;rounded=0;orthogonalLoop=1;jettySize=auto;html=1;" parent="1" source="YKdpuSdvsNxuyerLBY6K-21" target="YKdpuSdvsNxuyerLBY6K-23" edge="1">
          <mxGeometry relative="1" as="geometry" />
        </mxCell>
        <mxCell id="YKdpuSdvsNxuyerLBY6K-21" value="jdbc 流式读取元数据内容" style="rounded=1;whiteSpace=wrap;html=1;absoluteArcSize=1;arcSize=14;strokeWidth=2;" parent="1" vertex="1">
          <mxGeometry x="539" y="800.5" width="90" height="50" as="geometry" />
        </mxCell>
        <mxCell id="YKdpuSdvsNxuyerLBY6K-41" value="" style="edgeStyle=orthogonalEdgeStyle;rounded=0;orthogonalLoop=1;jettySize=auto;html=1;" parent="1" source="YKdpuSdvsNxuyerLBY6K-23" target="YKdpuSdvsNxuyerLBY6K-40" edge="1">
          <mxGeometry relative="1" as="geometry" />
        </mxCell>
        <mxCell id="YKdpuSdvsNxuyerLBY6K-23" value="布隆过滤器&lt;br&gt;逐条对比数据内容与主数据内容" style="rounded=1;whiteSpace=wrap;html=1;absoluteArcSize=1;arcSize=14;strokeWidth=2;" parent="1" vertex="1">
          <mxGeometry x="665" y="803" width="100" height="45" as="geometry" />
        </mxCell>
        <mxCell id="YKdpuSdvsNxuyerLBY6K-26" value="" style="edgeStyle=orthogonalEdgeStyle;rounded=0;orthogonalLoop=1;jettySize=auto;html=1;" parent="1" source="YKdpuSdvsNxuyerLBY6K-27" target="YKdpuSdvsNxuyerLBY6K-21" edge="1">
          <mxGeometry relative="1" as="geometry" />
        </mxCell>
        <mxCell id="YKdpuSdvsNxuyerLBY6K-27" value="组装异步任务" style="rounded=1;whiteSpace=wrap;html=1;absoluteArcSize=1;arcSize=14;strokeWidth=2;" parent="1" vertex="1">
          <mxGeometry x="390" y="795.5" width="105" height="60" as="geometry" />
        </mxCell>
        <mxCell id="YKdpuSdvsNxuyerLBY6K-28" value="线程池执行任务" style="text;html=1;resizable=0;autosize=1;align=center;verticalAlign=middle;points=[];fillColor=none;strokeColor=none;rounded=0;" parent="1" vertex="1">
          <mxGeometry x="540" y="750.5" width="110" height="30" as="geometry" />
        </mxCell>
        <mxCell id="YKdpuSdvsNxuyerLBY6K-30" value="" style="edgeStyle=orthogonalEdgeStyle;rounded=0;orthogonalLoop=1;jettySize=auto;html=1;" parent="1" source="YKdpuSdvsNxuyerLBY6K-31" target="YKdpuSdvsNxuyerLBY6K-33" edge="1">
          <mxGeometry relative="1" as="geometry" />
        </mxCell>
        <mxCell id="YKdpuSdvsNxuyerLBY6K-31" value="等待所有线程执行结束统计正常审计的应用数" style="verticalLabelPosition=bottom;verticalAlign=top;html=1;shape=mxgraph.flowchart.or;" parent="1" vertex="1">
          <mxGeometry x="780" y="430" width="70" height="70" as="geometry" />
        </mxCell>
        <mxCell id="YKdpuSdvsNxuyerLBY6K-32" value="" style="edgeStyle=orthogonalEdgeStyle;rounded=0;orthogonalLoop=1;jettySize=auto;html=1;" parent="1" source="YKdpuSdvsNxuyerLBY6K-33" target="YKdpuSdvsNxuyerLBY6K-13" edge="1">
          <mxGeometry relative="1" as="geometry" />
        </mxCell>
        <mxCell id="YKdpuSdvsNxuyerLBY6K-33" value="将统计结果写入日志" style="rounded=1;whiteSpace=wrap;html=1;absoluteArcSize=1;arcSize=14;strokeWidth=2;" parent="1" vertex="1">
          <mxGeometry x="765" y="350" width="100" height="40" as="geometry" />
        </mxCell>
        <mxCell id="YKdpuSdvsNxuyerLBY6K-36" value="否" style="edgeStyle=orthogonalEdgeStyle;rounded=0;orthogonalLoop=1;jettySize=auto;html=1;" parent="1" source="YKdpuSdvsNxuyerLBY6K-39" target="YKdpuSdvsNxuyerLBY6K-27" edge="1">
          <mxGeometry relative="1" as="geometry" />
        </mxCell>
        <mxCell id="YKdpuSdvsNxuyerLBY6K-37" style="edgeStyle=orthogonalEdgeStyle;rounded=0;orthogonalLoop=1;jettySize=auto;html=1;entryX=0;entryY=0.5;entryDx=0;entryDy=0;entryPerimeter=0;" parent="1" source="YKdpuSdvsNxuyerLBY6K-39" target="YKdpuSdvsNxuyerLBY6K-15" edge="1">
          <mxGeometry relative="1" as="geometry">
            <Array as="points">
              <mxPoint x="80" y="826" />
              <mxPoint x="80" y="480" />
            </Array>
          </mxGeometry>
        </mxCell>
        <mxCell id="YKdpuSdvsNxuyerLBY6K-38" value="是" style="edgeLabel;html=1;align=center;verticalAlign=middle;resizable=0;points=[];" parent="YKdpuSdvsNxuyerLBY6K-37" vertex="1" connectable="0">
          <mxGeometry x="-0.1562" y="-4" relative="1" as="geometry">
            <mxPoint y="1" as="offset" />
          </mxGeometry>
        </mxCell>
        <mxCell id="YKdpuSdvsNxuyerLBY6K-39" value="判断元数据数据内容更新&lt;br&gt;和主数据发布时间&lt;br&gt;与本地是否一致" style="strokeWidth=2;html=1;shape=mxgraph.flowchart.decision;whiteSpace=wrap;" parent="1" vertex="1">
          <mxGeometry x="145" y="760.5" width="150" height="130" as="geometry" />
        </mxCell>
        <mxCell id="YKdpuSdvsNxuyerLBY6K-43" value="是" style="edgeStyle=orthogonalEdgeStyle;rounded=0;orthogonalLoop=1;jettySize=auto;html=1;" parent="1" source="YKdpuSdvsNxuyerLBY6K-40" target="YKdpuSdvsNxuyerLBY6K-42" edge="1">
          <mxGeometry relative="1" as="geometry" />
        </mxCell>
        <mxCell id="YKdpuSdvsNxuyerLBY6K-46" value="否" style="edgeStyle=orthogonalEdgeStyle;rounded=0;orthogonalLoop=1;jettySize=auto;html=1;" parent="1" source="YKdpuSdvsNxuyerLBY6K-40" target="YKdpuSdvsNxuyerLBY6K-44" edge="1">
          <mxGeometry relative="1" as="geometry" />
        </mxCell>
        <mxCell id="YKdpuSdvsNxuyerLBY6K-40" value="是否在范围内" style="rhombus;whiteSpace=wrap;html=1;" parent="1" vertex="1">
          <mxGeometry x="850" y="785.5" width="80" height="80" as="geometry" />
        </mxCell>
        <mxCell id="YKdpuSdvsNxuyerLBY6K-42" value="忽略" style="rounded=1;whiteSpace=wrap;html=1;absoluteArcSize=1;arcSize=14;strokeWidth=2;" parent="1" vertex="1">
          <mxGeometry x="990" y="795.5" width="100" height="59" as="geometry" />
        </mxCell>
        <mxCell id="YKdpuSdvsNxuyerLBY6K-44" value="将结果放入本地线程安全队列" style="rounded=1;whiteSpace=wrap;html=1;absoluteArcSize=1;arcSize=14;strokeWidth=2;" parent="1" vertex="1">
          <mxGeometry x="840" y="910" width="100" height="49" as="geometry" />
        </mxCell>
        <mxCell id="YKdpuSdvsNxuyerLBY6K-51" value="数据库" style="strokeWidth=2;html=1;shape=mxgraph.flowchart.database;whiteSpace=wrap;" parent="1" vertex="1">
          <mxGeometry x="40" y="959" width="56" height="81" as="geometry" />
        </mxCell>
        <mxCell id="YKdpuSdvsNxuyerLBY6K-59" value="" style="verticalLabelPosition=bottom;verticalAlign=top;html=1;shape=card;whiteSpace=wrap;size=20;arcSize=12;" parent="1" vertex="1">
          <mxGeometry x="239.5" y="900" width="210.5" height="180" as="geometry" />
        </mxCell>
        <mxCell id="YKdpuSdvsNxuyerLBY6K-63" style="edgeStyle=orthogonalEdgeStyle;rounded=0;orthogonalLoop=1;jettySize=auto;html=1;" parent="1" source="YKdpuSdvsNxuyerLBY6K-60" target="YKdpuSdvsNxuyerLBY6K-44" edge="1">
          <mxGeometry relative="1" as="geometry">
            <Array as="points">
              <mxPoint x="560" y="960" />
              <mxPoint x="560" y="940" />
            </Array>
          </mxGeometry>
        </mxCell>
        <mxCell id="YKdpuSdvsNxuyerLBY6K-65" style="edgeStyle=orthogonalEdgeStyle;rounded=0;orthogonalLoop=1;jettySize=auto;html=1;" parent="1" source="YKdpuSdvsNxuyerLBY6K-60" target="YKdpuSdvsNxuyerLBY6K-51" edge="1">
          <mxGeometry relative="1" as="geometry">
            <Array as="points">
              <mxPoint x="220" y="960" />
              <mxPoint x="220" y="1000" />
            </Array>
          </mxGeometry>
        </mxCell>
        <mxCell id="YKdpuSdvsNxuyerLBY6K-60" value="线程1" style="rounded=1;whiteSpace=wrap;html=1;absoluteArcSize=1;arcSize=14;strokeWidth=2;" parent="1" vertex="1">
          <mxGeometry x="297" y="940" width="95" height="40" as="geometry" />
        </mxCell>
        <mxCell id="YKdpuSdvsNxuyerLBY6K-64" style="edgeStyle=orthogonalEdgeStyle;rounded=0;orthogonalLoop=1;jettySize=auto;html=1;" parent="1" source="YKdpuSdvsNxuyerLBY6K-61" target="YKdpuSdvsNxuyerLBY6K-44" edge="1">
          <mxGeometry relative="1" as="geometry" />
        </mxCell>
        <mxCell id="YKdpuSdvsNxuyerLBY6K-66" style="edgeStyle=orthogonalEdgeStyle;rounded=0;orthogonalLoop=1;jettySize=auto;html=1;" parent="1" source="YKdpuSdvsNxuyerLBY6K-61" target="YKdpuSdvsNxuyerLBY6K-51" edge="1">
          <mxGeometry relative="1" as="geometry">
            <Array as="points">
              <mxPoint x="220" y="1042" />
              <mxPoint x="220" y="1000" />
            </Array>
          </mxGeometry>
        </mxCell>
        <mxCell id="YKdpuSdvsNxuyerLBY6K-61" value="线程2" style="rounded=1;whiteSpace=wrap;html=1;absoluteArcSize=1;arcSize=14;strokeWidth=2;" parent="1" vertex="1">
          <mxGeometry x="295.75" y="1020" width="96.25" height="44.5" as="geometry" />
        </mxCell>
        <mxCell id="YKdpuSdvsNxuyerLBY6K-67" value="数据批量分批次&lt;br&gt;保存到分表" style="text;html=1;resizable=0;autosize=1;align=center;verticalAlign=middle;points=[];fillColor=none;strokeColor=none;rounded=0;" parent="1" vertex="1">
          <mxGeometry x="120" y="959" width="110" height="40" as="geometry" />
        </mxCell>
        <mxCell id="PMTQuIxZWdmDZA-RCzVE-1" value="t_audit_manage_main_data_agg_detail_xxxxx" style="text;strokeColor=none;align=center;fillColor=none;html=1;verticalAlign=middle;whiteSpace=wrap;rounded=0;" vertex="1" parent="1">
          <mxGeometry x="30" y="919.5" width="60" height="30" as="geometry" />
        </mxCell>
      </root>
    </mxGraphModel>
  </diagram>
</mxfile>
